<?xml version="1.0" encoding="utf-8"?>
<!-- Generator: Adobe Illustrator 21.0.1, SVG Export Plug-In . SVG Version: 6.00 Build 0)  -->
<svg version="1.1" id="Capa_1" xmlns="http://www.w3.org/2000/svg" xmlns:xlink="http://www.w3.org/1999/xlink" x="0px" y="0px"
	 viewBox="0 0 1016 150" style="enable-background:new 0 0 1016 150;" xml:space="preserve">
<style type="text/css">
	.st0{fill:#4F5255;}
	.st1{fill:#DE7C2C;}
	.st2{fill:#787A7E;}
</style>
<path class="st0" d="M133.7,69.9c-0.4-8.2-1-18-0.9-25.3h-0.3c-2,6.9-4.4,14.2-7.4,22.2l-10.3,28.4h-5.7l-9.5-27.9
	c-2.8-8.3-5.1-15.8-6.8-22.8h-0.2c-0.2,7.3-0.6,17.1-1.1,25.9L90,95.7h-7.2l4.1-58.5h9.6l10,28.3c2.4,7.2,4.4,13.6,5.9,19.7h0.3
	c1.5-5.9,3.6-12.3,6.2-19.7l10.4-28.3h9.6l3.6,58.5h-7.4L133.7,69.9z"/>
<path class="st0" d="M156.3,77.2l-6.1,18.4h-7.8l19.9-58.5h9.1l20,58.5h-8.1l-6.3-18.4H156.3z M175.5,71.3l-5.7-16.9
	c-1.3-3.8-2.2-7.3-3-10.7h-0.2c-0.9,3.5-1.8,7-3,10.6l-5.7,16.9H175.5z"/>
<rect x="191.2" y="37.1" class="st0" width="7.6" height="58.5"/>
<path class="st0" d="M206.7,95.7V37.1h8.3l18.8,29.6c4.3,6.9,7.7,13,10.5,19l0.2-0.1c-0.7-7.8-0.9-14.9-0.9-24.1V37.1h7.1v58.5H243
	l-18.6-29.7c-4.1-6.5-8-13.2-10.9-19.5l-0.3,0.1c0.4,7.4,0.6,14.4,0.6,24.1v25H206.7z"/>
<path class="st1" d="M263.4,82c3.6,1.8,9,3.6,14.7,3.6c6.1,0,9.3-2.5,9.3-6.3c0-3.6-2.8-5.7-9.8-8.2c-9.7-3.4-16.1-8.8-16.1-17.3
	c0-10,8.3-17.6,22.1-17.6c6.6,0,11.5,1.4,14.9,3l-3,10.7c-2.3-1.1-6.5-2.8-12.2-2.8c-5.7,0-8.5,2.6-8.5,5.6c0,3.7,3.3,5.4,10.9,8.3
	c10.3,3.8,15.2,9.2,15.2,17.5c0,9.8-7.6,18.2-23.6,18.2c-6.7,0-13.3-1.7-16.6-3.6L263.4,82z"/>
<polygon class="st1" points="344.7,70.9 323.2,70.9 323.2,84.8 347.2,84.8 347.2,95.7 309.9,95.7 309.9,37.1 346,37.1 346,48 
	323.2,48 323.2,60.1 344.7,60.1 "/>
<path class="st1" d="M432.8,79.9c-0.8-0.6-0.9-0.8-1-1.6c0.5-2.4,2.5-3.1,2.8-5.8c-7.5,5-10.3-4.4-9.4-13.6c2.6-1.1,5.9-3.5,6.2-5.8
	c-2.9,0.5-5.8,1-8.3,1.9c-6.1-4.4-6-15.5-16-15.6c-3.3-1.6-7.4-4.1-12.5-3.9c-1.1,0.1-2.1,0.4-3.2,0.7c-1.2,0.4-2.5,0.8-3.7,0.8
	c-3.2,0.2-6.1-0.3-8.9-0.9h-16.6l-8.6,15.7h37c2.3,0,4.1,0.6,5.3,1.8c1.3,1.2,1.9,2.9,1.9,5.3c0,2.1-0.7,3.8-2.1,5
	c-1.4,1.2-3.1,1.8-5.1,1.8h-37v10.1v18.7v2.1h13.1v-2.2V80.6h12.6h7.6l1.3,2.1l7.3,12.3l0.9,1.6H414l-0.8-1.2l-7-10.5
	c-1-1.4-1.8-2.6-2.5-3.6c0.5-2,1.2-3.7,1.7-5.6c1.7-0.3,2.9,2.2,4.9,0c1.2,5.3,4.5,9.1,7.6,12.8c1.3,2.9,5.7,7.5,8,7.4
	c3.8-0.6,5.1-4.3,6-8.2c6,0.5,18.7-8.4,21.4-14.7C445.8,77.4,435.4,82.5,432.8,79.9"/>
<polygon class="st2" points="353.2,115.6 353.2,103.8 356.8,103.8 358.9,111.9 361,103.8 364.6,103.8 364.6,115.6 362.4,115.6 
	362.4,106.3 360.1,115.6 357.8,115.6 355.4,106.3 355.4,115.6 "/>
<rect x="374.2" y="103.8" class="st2" width="2.4" height="11.8"/>
<path class="st2" d="M386.1,115.6v-11.8h5c1.3,0,2.2,0.1,2.7,0.3c0.6,0.2,1,0.6,1.4,1.1c0.3,0.5,0.5,1.2,0.5,1.9
	c0,0.9-0.3,1.6-0.8,2.2c-0.5,0.6-1.3,0.9-2.3,1.1c0.5,0.3,0.9,0.6,1.3,1c0.3,0.4,0.8,1,1.4,1.9l1.4,2.3h-2.8l-1.7-2.6
	c-0.6-0.9-1-1.5-1.3-1.7c-0.2-0.2-0.5-0.4-0.7-0.5c-0.3-0.1-0.7-0.1-1.2-0.1h-0.5v4.9H386.1z M388.5,108.8h1.8c1.1,0,1.9,0,2.1-0.1
	c0.3-0.1,0.5-0.3,0.7-0.5c0.2-0.2,0.2-0.5,0.2-0.9c0-0.4-0.1-0.7-0.3-1c-0.2-0.2-0.5-0.4-0.9-0.5c-0.2,0-0.8,0-1.7,0h-1.9V108.8z"/>
<path class="st2" d="M404.7,111.8l2.3-0.2c0.1,0.8,0.4,1.3,0.8,1.7c0.4,0.4,1,0.5,1.7,0.5c0.8,0,1.3-0.2,1.7-0.5
	c0.4-0.3,0.6-0.7,0.6-1.1c0-0.3-0.1-0.5-0.2-0.7c-0.2-0.2-0.4-0.4-0.9-0.5c-0.3-0.1-0.9-0.3-1.9-0.5c-1.3-0.3-2.2-0.7-2.7-1.2
	c-0.7-0.6-1.1-1.4-1.1-2.4c0-0.6,0.2-1.2,0.5-1.7c0.3-0.5,0.8-0.9,1.5-1.2c0.6-0.3,1.4-0.4,2.3-0.4c1.5,0,2.6,0.3,3.3,1
	c0.7,0.6,1.1,1.5,1.2,2.6l-2.4,0.1c-0.1-0.6-0.3-1-0.7-1.3c-0.3-0.3-0.8-0.4-1.5-0.4c-0.7,0-1.2,0.1-1.6,0.4
	c-0.3,0.2-0.4,0.4-0.4,0.7c0,0.3,0.1,0.5,0.4,0.7c0.3,0.3,1,0.5,2.2,0.8c1.2,0.3,2,0.6,2.6,0.8c0.6,0.3,1,0.7,1.3,1.2
	c0.3,0.5,0.5,1.1,0.5,1.9c0,0.7-0.2,1.3-0.6,1.9c-0.4,0.6-0.9,1-1.6,1.3c-0.7,0.3-1.5,0.4-2.6,0.4c-1.5,0-2.6-0.3-3.4-1
	C405.3,114.1,404.8,113.1,404.7,111.8"/>
<path class="st2" d="M434.2,115.6h-2.6l-1-2.7h-4.7l-1,2.7h-2.5l4.6-11.8h2.5L434.2,115.6z M429.8,111l-1.6-4.4l-1.6,4.4H429.8z"/>
</svg>
