<?xml version="1.0" encoding="utf-8"?>
<!-- Generator: Adobe Illustrator 21.0.1, SVG Export Plug-In . SVG Version: 6.00 Build 0)  -->
<svg version="1.1" id="Capa_1" xmlns="http://www.w3.org/2000/svg" xmlns:xlink="http://www.w3.org/1999/xlink" x="0px" y="0px"
	 viewBox="0 0 478 335.7" style="enable-background:new 0 0 478 335.7;" xml:space="preserve">
<style type="text/css">
	.st0{fill:url(#SVGID_1_);}
	.st1{fill:#9C9E9F;}
	.st2{fill:url(#SVGID_2_);}
	.st3{fill:url(#SVGID_3_);}
	.st4{fill:url(#SVGID_4_);}
	.st5{fill:url(#SVGID_5_);}
	.st6{fill:url(#SVGID_6_);}
	.st7{fill:url(#SVGID_7_);}
	.st8{fill:url(#SVGID_8_);}
	.st9{fill:url(#SVGID_9_);}
	.st10{fill:url(#SVGID_10_);}
	.st11{fill:url(#SVGID_11_);}
	.st12{fill:url(#SVGID_12_);}
</style>
<linearGradient id="SVGID_1_" gradientUnits="userSpaceOnUse" x1="319.058" y1="117.4414" x2="319.058" y2="-144.6612">
	<stop  offset="0" style="stop-color:#E9E9EA"/>
	<stop  offset="0.9987" style="stop-color:#FFFFFF;stop-opacity:0"/>
</linearGradient>
<path class="st0" d="M27.8,19.3c0.8,0.1,1.5,0.1,2.3,0.1c5,0,9.2-1.9,10.8-2.4c0.1,0,0.3-0.1,0.4-0.1c1.1,0,2.7,1.1,4.3,2.4
	c1.6,1.2,3.2,2.7,4.2,3.3c2,1.4,5.7,0,9.7,1.9c3.9,1.9,33.1,11.6,39.1,14.6c2.1,1.1,8.2,1.4,15.1,1.4c6,0,12.6-0.3,17.7-0.5
	c4.4-0.2,7.7-0.5,8.5-0.5l-0.7-7.3h0.2c0,0,7.8-0.2,12.8-0.6c2.1-0.2,4-0.3,5.8-0.3c2.6,0,5,0.3,6.9,1.5c3.3,1.9,12.9,9.2,16.5,12.2
	c3.7,3,8.9,9.8,10.2,14.7c1.2,4.7,9.1,10,13.1,12.2c1,0.6,1.8,0.8,2.4,0.8c1.3,0,2-0.8,3.2-0.8c0.4,0,0.9,0.1,1.4,0.4
	c0.5,0.3,0.9,0.4,1.2,0.4c1.4,0.1,2.5-2.3,3.9-5.9c1.8-4.6,3.8-5.2,8.8-6.5c1.6-0.4,2.9-0.6,4-0.6c2.4,0,4.2,0.9,7.7,2.3
	c5.4,2.1,13.8,16.2,16.7,21.4c2.8,5.2,9.2,9.5,12.4,11.3c2,1.2,2.3,3.8,2.3,6.3c0,1.3-0.1,2.7-0.1,3.8c0,0.5,0,1,0.1,1.4
	c0.2,1.6,1.8,2.9,3.8,4c2,1.1,4.2,2,5.5,3c2,1.5,3,2.2,5.3,2.2c0.7,0,1.4-0.1,2.3-0.2c0.2,0,0.3,0,0.5,0c3.1,0,9.4,3.1,13.4,5.2
	c0.9-4-0.1-7-0.6-10.7c-0.6-4.2,0.1-12.2,2-16.6c1.9-4.3,17.5-13.3,25-17.1c7.5-3.8,22.1-15.6,22.1-15.6s3.3,4.2,6.1,4.2
	c2.8,0,9.1-0.7,13.8,0.4c4.7,1.1,7.3-0.4,12.2-2.2c4.9-1.8,5.6,5.5,6.6,7.4c1.1,2,5,2.2,6.9,1.4c1.9-0.8,4.4-2.5,6-0.3
	c1.6,2.3,2.7-1.7,4.1-4.2c1.3-2.5,2,0.3,3.9,1.7c1.9,1.4,4.5-0.1,6-1.4c1.5-1.2,0-6.4-0.1-8.4c-0.1-2-9.8-2.8-9.8-2.8
	s24.4-3.6,25.2-1.7c0.8,2,4.5,1.1,9.6,0.8c5.1-0.3,10.6-2.5,14.6-1c4.1,1.6,5.2,4.1,9.8,2.1c4.6-2,5.7-1.1,6,1.8
	c0.3,2.9,1.9,3.9,7.7,5.6c5.8,1.7,13.6-5.3,13.6-5.3s13.3,9.1,16,13.1c2.7,3.9,5.2,5.9,3,12.9c-2.2,7-1.2,5.8,0.8,11.6
	c2,5.9,3.8,7.5,7.1,7.2c3.3-0.3,3.8,4.5,4.1,9.4c0.3,4.9,6.8,13.6,9.9,17.4c3.1,3.8,4.2,1.7,8.7,1.5c4.5-0.1,4.2-2.4,5.4-7.9
	c1.2-5.5,2.3-12.3,1.9-16.7c-0.4-4.4-5.3-15.9-5.8-21.3c-0.5-5.5-7.2-17.6-10.9-27.7c-3.7-10.1-1-17.6,1.1-23.7
	c2-6.2,15.7-14.3,22.9-18.7c7.2-4.3,17.4-15.7,21.6-18.4c4.2-2.7,19-8.1,23.3-9.8c4.3-1.7-2.7-8.3-4.2-9.7c-1.5-1.4,6-3.6,8.7-4.4
	c2.7-0.7-3.1-3.8-5.3-4.8c-2.2-1,5.8-8.3,6.9-10.5c1.1-2.2-14.8-8.7-12.9-9.3c1.9-0.5,5-1.1,4.9-3.9c-0.1-2.8-7.5-12.7-7.5-16.2
	c0-3.5,0.4-4.3,2.4-1c2,3.4,7,8.4,9.2,9.6c2.2,1.1-2.6-12.8-2.7-16.3c-0.1-3.5,9.8-6.2,11.4-2.8c1.6,3.4-3.7,4.1-5.1,11
	c-1.5,6.9,2.7,8.4,4.6,10.4c1.9,2-2,9-2.7,11.9c-0.7,3,4.3-2.8,5.8-6.5c1.5-3.6,1.2-4.9,3.7-7c2.4-2.1,3.2-3.1,3.5-4.3
	c0.3-1.3-4.1-19.9-4.6-22.8c-0.5-2.8,3.3-2.9,5.4-2.9c2.2,0,0.8,4.3,1.1,11.1c0.3,6.8,3.5,7.7,4.3,4.7c0.8-3.1,3.4-5.6,7.1-11.1
	c3.7-5.4,1.2-7.4,0.9-9.2c-0.3-1.8-3.4-4.1,0.8-4.5c4.2-0.4,21.4-2,26-3.5c4.6-1.5,4.3-2.2,3.2-3.2c-1.1-1-12.5,2.3-16.3,2.1
	c-3.8-0.1-4.7-0.5-2.6-2.2c2.2-1.7,22.6-2.2,26.4-2.5c3.8-0.3,4.5-2.9,6.5-6.9c2-3.9,2.6-15,3.4-18.4c0.8-3.4,9.3-6.2,13.2-8.4
	c3.8-2.3,10.2-4.9,11.7-8c1.5-3.1,2-5.2,3.7-5.2c1.6,0,4.9,1.7,7.3,2.5c2.5,0.8,5-1.7,7.7-1.7c2.7,0,5.7-2,10.7-2.7
	c5-0.7,2-3.2,1.2-3.9c-0.7-0.6-1.9-2.4-1.1-3.5c-3.3-1.6-6.6-3.7-7.3-6.1c-0.4-1.5-0.8-1.7-1.3-1.7c-0.4,0-0.9,0.2-1.5,0.3
	c-0.4,0-0.8-0.2-1-0.6c-0.3-0.4-0.5-1.1-0.6-2.2c0-0.6-0.1-1.1-0.1-1.7c0-3.8,0.9-8.7,0.9-12.1c0-1.7-0.2-3-0.8-3.8
	c-2.2-2.8-3.4-3.9-6.9-3.9c-2,0-5.3,0.4-7.8,0.4c-0.9,0-1.8-0.1-2.5-0.2c-0.7-0.2-1.2-0.4-1.3-0.9c-0.2-0.6-0.3-1.6-0.6-2.3
	c-0.2-0.8-0.6-1.3-1.1-1.3c-0.4,0-1.2,0.4-2.4,1.7c-3.8,4.2-4.3,7-7.6,9.6c-3.2,2.5-2.6,4.6-3.2,8c-0.6,3.5-6.2,11.6-8.5,13.1
	c-0.9,0.6-2.3,0.7-3.7,0.7c-2.1,0-4.1-0.4-4.5-0.4c-0.2,0.1-0.7,0.3-1.3,0.6c-0.7,0.4-1.5,0.9-1.8,1.2c-0.7,1-3.7,2.3-10.5,2.3
	c-3.4,0-13.4,0.1-22.5,0.3c-8.7,0.1-16.6,0.3-17.3,0.3l-22.3,13.7c-0.2,1-0.6,3.1,0,4.5c0.7,1.9-1.5,6.4-3.3,9
	c-1.8,2.6-13,4.3-17,4.7c-4,0.4-10.9-0.2-14.5-1.5c-3.6-1.3-1.6,0.7-1.6,3.6c0,2.8-1.1,4.3-6.3,8.8c-5.3,4.5-33.1,12.6-37.3,13.7
	c-4.2,1.1-8.9-1.5-10.7-2.4c-1.8-1-9.4-12.7-8.3-14.4c1.1-1.7,4.9-7.3,7.1-12c2.2-4.7-6.3-3.9-9.4-4.3c-3.1-0.4-1.6-7.5-1.1-12
	c0.5-4.5,2.7-10.1,2.7-10.1s-12.7-9.6-14.8-11.4c-2.2-1.9-4.3,0.4-8.5,1.1c-4.2,0.7-3.6,3.7-3.3,6.6c0.4,2.8-2.2,4.5-2.2,4.5
	s-4.2,0-5.6,0c-1.5,0-3.3,12.9-4.3,14.8c-1.1,1.9-6.9,6.2-9.1,8.4c-2.2,2.2-5.6,2.2-5.6,2.2l-5.4-3.7l1.3-22.5l23.7-15.3l12.1-3.9
	c0,0-4.7-4.9-6.7-5.6c-2-0.8-22.4,0.4-22.4,0.4l-9.9-7.9c0,0-7.2,0.4-9.2,0.4c-2,0-18.6,12-21.2,14.2c-2.5,2.3-6.7-0.2-12.1-1.1
	c-5.4-0.9-15.5-5.4-15.5-5.4s21.9-12.6,34-19.8c-2.9-0.6-6.2-1.5-8.8-2.5c-1.9-0.8-3.1-1.8-3.8-2.7c-0.6-0.8-1-1.5-1.1-1.6
	c0,0,0,0.1-0.1,0.1c-0.1,0.1-0.2,0.4-0.3,0.8c-0.7,2-2,3.5-3.7,3.5c-0.9,0-1.9-0.4-2.9-1.4c-1.7-1.6-2.6-2.4-3.4-2.4
	c-0.6,0-1.3,0.4-2.5,1.3c-1.7,1.3-2.4,2.4-3.8,2.5c-0.9,0-2.1-0.5-4-1.7c-4.5-2.8-13.9-6.5-19.6-6.5c-0.3,0-0.5,0-0.8,0
	c-2.8,0.2-4.1,0.6-5.1,1c-1.1,0.4-1.9,0.8-3.7,0.9c-0.1,0-0.3,0-0.4,0c-3.8,0-10.6-2.7-13.2-4.9c-2.6-2.3-4.1-7-5.8-8
	c-0.3-0.2-0.5-0.3-0.7-0.3c-0.3,0-0.6,0.4-0.7,1.1c-0.1,0.8-0.1,1.9-0.1,3c0,0.8-0.1,1.2-0.3,1.6c-0.2,0.3-0.5,0.5-0.8,0.4
	c-0.4,0-0.7-0.2-0.8-0.3h-402c2.5,2.3,6.1,5.9,7.9,7.3c2.6,2.1,0.4,3.1-0.6,3.4c-1,0.3,0,2.4,1.6,4.6c1.6,2.3,0.1,6.7,0.1,8.7
	c0,2-3.5,1.3-5.2,1.5c-1.6,0.3-2-0.7-2.2-2.8c-0.2-2.1-0.8-5.9-0.3-8c0.5-2.1,0.3-3.4-1.8-3.6c-2-0.3-16-2.3-19.1-2.4
	c-3.1-0.1-5,1.8-7.9,2.7c-2.8,0.8,10.2,11.6,11,13.1c0.8,1.4-1.5,5.2,0,6.9c1.5,1.7,4.5,0.8,5.6,1.4c1.1,0.6-3.9,3.2-4.9,5.6
	c-1,2.4-0.7,26.9-0.7,31.2c0,4.2-0.5,8.6-1.6,11.5c-1.1,3-5.3,9.6-6.1,11.2c-0.8,1.7,4.2,9.1,5.3,12.2c1.1,3.1,1.8,10.7,1.8,12.9
	c0,2.2-2.9,6-3.5,8.3c-0.7,2.2,7.3,9.4,9.2,12.6c1.9,3.2-0.3,4.9,0.5,8.7c0.8,3.8,0.4,9.4,6.2,13.3c5.8,3.9,10,4.9,13.3,5
	c3.2,0.1,13.3-0.4,15.2-0.1c1.9,0.3-3.7,7.3-5.3,12.2c-1.6,4.9-1.5,7.6-1.2,11.5c0.3,3.9,8.8,12.8,12.7,15.6
	c3.9,2.8,4.1,7.4,4.1,8.7s7.1,3.2,9.5,3.1c2.4-0.1,4.8,0.3,7.5,1.7c2.7,1.4,9.1,4.8,14,5.9c4.9,1.1,5.1,1,6.1,3.9
	c1,2.9,7.7,8.4,11.3,10.7c2.3,1.5,3.9,2.8,4.7,4.5c1,0,2.3-0.1,3.8-0.1C20.8,18.8,24.8,18.9,27.8,19.3z"/>
<path class="st1" d="M379.6,266.5c2.2,0,6.8,0.5,10.4,0.5c1.8,0,3.4-0.1,4.2-0.5c1.1-0.5,2-0.5,2.5-0.6c0.4-0.2,0.6-0.2,0.6-1.2
	c0-0.4,0-0.9-0.2-1.7c0-0.5-0.1-1-0.1-1.5c0-1.9,0.4-3.6,0.4-4.5c0-0.4-0.1-0.7-0.2-0.8c-0.1-0.1-0.4-0.3-0.8-0.3
	c-2.5,0-6-0.2-7.2-1.4c-1.1-1.1-5.8-5-5.8-5l-0.3-0.3l6.2-1.6l0.4-7.7l25,0.2c0.1,0,0.3,0,0.4,0l0.4,0l0.6-4.9l0.3,0.3
	c0,0,0.7,0.7,1.5,1.4c0.9,0.7,2.1,1.4,3,1.4c0.5,0,0.8-0.1,1.1-0.6c1.8-2.2,4.5-6.2,4.7-7.9c0.1-1.1,1-1.8,2-2.2
	c1-0.5,2.1-0.8,2.6-0.9c0.5-0.1,1.3-1.5,1.9-2.2c0.2-0.3,0.3-0.4,0.6-0.5c0.2,0,0.3,0.1,0.3,0.2c0.1,0.1,0.1,0.3,0.1,0.5
	c0,0.2,0,0.4,0,0.7c-0.3,2.7-1.9,5.4-1.9,6.2c0,0.1,0,0.1,0.1,0.1c0.6,0.1,2.6,0.9,4.1,1.5c1.2-4,3-12.1,3.6-13.8
	c0.8-2.3-0.8-3.9-1.9-7.4c-1.1-3.5,3.5-7.7,6-11.1c2.4-3.4,6.4-7.3,6.4-9.1c0-1.8-0.4-6.9-3.6-8.4c-3.3-1.6-9.1,0.8-12.6,0.8
	c-3.5,0-7.2-1.1-13,1.4c-5.8,2.5-14.5,3.1-18,3.4c-3.5,0.3-2.6,4.5-5.6,8.7c-3,4.2-4.5,14.2-4.6,18.1c-0.1,3.9-6.7,6.2-10.7,8.7
	c-4.1,2.5-9.2,2.5-12.6,3.2c-3.4,0.7-5.6,3.8-10.3,4.3c-4.7,0.6-16.3,2-19.3,2.5c-3,0.6-7.4-4.6-11.1-6.6c-3.7-2-2,0-5,0.3
	c-3,0.3-7.1-4.4-8.5-5.9c-1.5-1.6-3.1-7.9-4.6-11.1c-1.5-3.2-6.8-8-9.5-12.5c-2.7-4.5-9.6-21.9-10.6-26c-0.9-4.1,0-10.4,0.8-19.1
	c0.8-8.7,6-26.7,7.6-31.5c0.1-0.4,0.2-0.8,0.3-1.2c-1-0.5-2.1-1.1-3.3-1.7c-3.6-1.8-7.8-3.5-10-3.5c-0.2,0-0.3,0-0.4,0
	c-0.9,0.1-1.7,0.2-2.4,0.2c-2.4,0-3.6-0.8-5.6-2.3c-1.2-0.9-3.5-1.8-5.5-3c-2-1.1-3.8-2.5-4-4.3c0-0.5-0.1-1-0.1-1.5
	c0-1.2,0.1-2.5,0.1-3.8c0-2.6-0.3-5-2.1-6c-3.3-1.9-9.6-6.2-12.6-11.5c-2.9-5.2-11.4-19.3-16.5-21.3c-3.6-1.4-5.3-2.3-7.6-2.3
	c-1,0-2.3,0.2-3.9,0.6c-5.1,1.3-6.7,1.8-8.5,6.2c-1.5,3.6-2.4,6.1-4.3,6.2c-0.4,0-0.9-0.2-1.4-0.4c-0.5-0.3-0.8-0.4-1.2-0.4
	c-0.9,0-1.7,0.8-3.2,0.8c-0.7,0-1.6-0.2-2.7-0.8c-4-2.3-12-7.5-13.3-12.5c-1.2-4.8-6.5-11.5-10.1-14.5c-3.6-3-13.2-10.3-16.4-12.2
	c-1.9-1.1-4.2-1.4-6.7-1.4c-1.8,0-3.7,0.1-5.8,0.3c-4.6,0.3-11.3,0.5-12.6,0.6l0.7,7.3l-0.2,0c0,0-14.4,1-26.5,1
	c-6.9,0-13-0.3-15.2-1.4c-6-3-35.1-12.7-39.1-14.6c-3.9-1.8-7.5-0.3-9.8-1.9c-1.1-0.7-2.6-2.1-4.2-3.4c-1.6-1.2-3.2-2.3-4-2.3
	c-0.1,0-0.2,0-0.3,0c-1.6,0.5-5.9,2.4-11,2.4c-0.8,0-1.5-0.1-2.3-0.2c-3-0.4-6.9-0.5-10.1-0.5c-1.4,0-2.6,0-3.6,0
	c0.3,0.8,0.5,1.6,0.5,2.5c0,3.2,0.8,7.7,4.1,9.1c3.2,1.4,0.7,5.6,1.2,7.3c0.5,1.7,2.2,4.2,4.9,5c2.7,0.9,1.6,2.8,1.6,4.7
	c0,1.8,2.2,5,3.5,8c1.4,3,0.5,3.7,2.7,5.4c2.2,1.7,20.5,16,22.1,18c1.6,2,0.5,2.5-3.2,4.2c-3.8,1.7-5.6,5.6-7.9,8.1
	c-2.3,2.5,8.8,8.1,12.4,11.5c3.5,3.4,8.5,4.6,11,6.3c2.4,1.7,7.6,4.4,12.3,6c4.7,1.7,3.7,7.2,3.9,11.4c0.3,4.2,0.3,5.9-0.6,9.3
	c-0.8,3.4,3.7,3.8,5.6,4.9c1.9,1.1,11,5.6,16.3,10.2c5.3,4.6,7.2,11.5,8.5,14.1c1.3,2.5,4.5-0.1,7.3-0.4c2.8-0.3,2.3-1.7,1.5-5.7
	c-0.8-4.1-9.4-10.5-10.6-11.1c-1.2-0.6-0.1-5.5,0.1-7.4c0.3-2-2.8-0.7-2.8,0.4c0,1.1-3.7,2.5-3.5-0.4c0.1-3,1.4-7.3,1.4-9.8
	c0-2.5-1.2-1.4-2-1.6c-0.8-0.1-2.7-1.1-3-2.2c-0.3-1.1-1.1-2.7-2.2-3.2c-1.1-0.6-1.4-2.7-1.4-4.5c0-1.8-1.3-1.9-3.5-4.6
	c-2.2-2.6-3.1-6.6-5.2-8.7c-2-2.1-2.6-1.1-6.5-5.5c-3.9-4.3-11.2-18.1-12.7-20.2c-1.5-2.1-0.8-4.2-0.5-6.7c0.3-2.5,0.3-3.5-0.6-4.8
	c-0.8-1.2-4.3-4.6-5.4-5.2c-1.1-0.6-6.7-0.7-10.9-3.1c-4.2-2.4-5.7-9.1-7.3-13.9c-1.6-4.8-1.8-5.6-1.5-6.9c0.3-1.3,0.5-3.4,0.4-5.2
	c-0.1-1.8,1.1-2.7,2.2-2.7c1.1,0,4.3-0.9,5.4,0c1.1,0.8,3.8,3.4,6.5,3.6c2.7,0.3,9,3.6,11.1,4.9c2.2,1.3,3,9.4,3.3,12.1
	c0.3,2.7,0.8,8.3,1.6,9.7C75,63.5,84.5,76,87.8,81.8c3.3,5.8,12.3,8.1,13.2,9.6c0.8,1.4,4.3-0.8,6-1.3c1.6-0.4,1.1,7.1,3.1,11.8
	c2,4.7,10.5,4.9,14.4,7.3c3.9,2.4,4.6,4.5,2.2,6.8c-2.4,2.2-2.7,3.8-1.6,8.5c1.1,4.8,9.3,5.5,12.6,6.6c3.3,1.1,6.9,2.7,6.9,6
	c0,3.4,1.1,4.8,4.2,5.3c3.1,0.6,4.9,5.6,10.3,9.7c5.4,4.1,18.2,20.4,22.3,26c4.1,5.6,2.6,10.1,1.1,13.2c-1.5,3.1-2.6,2.8-2.6,7.2
	c0,4.4,0.7,2.4-1.6,3.5c-2.3,1.2-0.5,0.1-0.5,3.5c0,3.4,7.9,10.2,11,13.5c3.1,3.3,4.3,3.5,8.4,4.1c4.1,0.6,13.6,10.7,15.9,12.9
	c2.3,2.2,12.1,3.1,17.5,4.5c5.4,1.4,6.8,3.4,9.5,6.4c2.7,3.1,7.1,4.2,10.5,6.2c3.4,2,10.2,3.9,15.3,4.5c5.2,0.6,9.1,1.3,12.8,4.2
	c3.7,2.9,7.7,4.9,12.1,6.6c4.4,1.7,7.6,3.7,16.3,4.5c8.7,0.8,9.5-0.3,11.9-1.7c2.4-1.4,6.6-4.3,9.9-6.3c3.3-2,6.3-2.1,11.3-0.7
	c5,1.4,15.9,12.1,27,20.8c0.5,0.4,0.9,0.7,1.4,1.1c2-4.6,5.1-11.4,7.7-15.7C377.4,268.1,378.5,266.5,379.6,266.5z"/>
<g>
	<linearGradient id="SVGID_2_" gradientUnits="userSpaceOnUse" x1="430.3941" y1="236.9624" x2="493.0608" y2="346.9624">
		<stop  offset="0" style="stop-color:#E9E9EA"/>
		<stop  offset="0.9987" style="stop-color:#FFFFFF;stop-opacity:0"/>
	</linearGradient>
	<path class="st2" d="M428.7,271c-1.8,2.6-4.1,5.8-5.7,7.9c-0.7,1-1.5,1.4-2.1,1.4c-1.1,0-1.9-0.9-2.4-0.8c-0.3,0-0.5,0.1-0.9,0.8
		c-0.3,0.7-0.7,1.9-1,3.8c-0.4,2.3-0.6,3.9-0.6,5c0,0.6,0,1,0.1,1.4c0,0.3,0.1,0.4,0.1,0.6c0.2,0.6,0.5,0.9,0.8,1.1
		c0.6,0.5,1.4,0.8,2.1,1.9c0.8,1.2,2.1,1.9,3.3,2.7c1.2,0.7,2.4,1.4,2.8,2.8c0.1,0.5,0.4,0.6,1,0.7c1.9,0,5.8-2.2,8.5-2.2
		c0.3,0,0.6,0,0.8,0.1c1.8,0.4,2.3,2,2.2,3.8c0,1.8-0.5,4-0.6,6c0,0,0,0.1,0,0.1c0,0.7,0.4,1.2,1.1,1.5l0.4,0.2
		c0.1,0,0.2,0.1,0.3,0.1c1.1,0.4,2.6,0.6,4.2,0.6c3,0,6.2-0.6,7.5-1.3c2.3-1.2,3.8-3.2,3.7-4.9c0-0.4-0.1-0.7-0.2-1
		c-0.3-0.6-0.8-1.1-1.2-1.5c-0.4-0.5-0.9-0.8-0.9-1.2c0-0.3,0.2-0.4,0.5-0.5c0.3-0.1,0.7-0.2,1.3-0.2c3.4-0.2,4.7-0.9,5.4-3.4
		c0.2-0.6,0.4-1.1,0.9-1.1c0.6,0,1.1,0.7,1.8,1.6c0.7,0.8,1.5,1.9,2.4,2.7c0.2,0.2,0.4,0.3,0.7,0.3c1.3,0,3.8-2.4,6.2-5.1
		c2.4-2.7,4.8-5.7,6.3-6.9c1.3-1.1,2.2-1.5,3-1.5c1.3,0,2.4,0.9,5.1,1.9c0.6,0.2,1.4,0.3,2.3,0.3c2.9,0,7.1-1,10.6-2.1
		c0.3-0.1,0.5-0.1,0.7-0.2h0c0,0,1.6-3.4,1.5-5.2c-0.1-1.9-13.6-10.5-18.7-12.7c-5.2-2.1-16.4-1-16.4-1s-0.4-1.6-2.4-3.1
		c-2-1.5-2.6,3.7-6.4,4.8c-3.8,1.1-14.4-0.1-18.2-0.6c-3.8-0.4-4.1,0.8-6.6,2.2C431.1,271.2,429.9,271.2,428.7,271z"/>
	<linearGradient id="SVGID_3_" gradientUnits="userSpaceOnUse" x1="421.9468" y1="241.7748" x2="484.6135" y2="351.7748">
		<stop  offset="0" style="stop-color:#E9E9EA"/>
		<stop  offset="0.9987" style="stop-color:#FFFFFF;stop-opacity:0"/>
	</linearGradient>
	<path class="st3" d="M416.3,270.1l5.7-1c-0.4-0.1-0.7-0.3-0.7-0.3s4.1-4.4,6-8.3c1.9-3.9,6.8-11.4,8.4-14.5c1.6-3.1-0.8-10,0-10.7
		c0.2-0.1,0.4-0.8,0.7-1.8c-0.2-0.1-0.4-0.2-0.6-0.3c-1.5-0.6-3.1-1.2-3.5-1.2c-0.3-0.1-0.4-0.3-0.4-0.6c0-1.1,1.6-3.6,1.9-6.2
		c0-0.3,0-0.5,0-0.6c0-0.1,0-0.2,0-0.3c0,0,0,0,0,0c0,0-0.1,0.1-0.2,0.2c-0.2,0.2-0.4,0.5-0.6,0.8c-0.5,0.6-0.9,1.3-1.4,1.5
		c-0.5,0.2-1.6,0.5-2.6,0.9c-0.9,0.5-1.7,1.1-1.8,1.9c-0.2,2-2.9,5.9-4.7,8.2c-0.4,0.5-0.9,0.7-1.5,0.7c-1.7,0-3.7-1.9-4.5-2.6
		l-0.5,4.5l-0.8,0c0.4,4.8,1,11.8,1,14.6C416.1,259.1,416.3,268.5,416.3,270.1z"/>
	<linearGradient id="SVGID_4_" gradientUnits="userSpaceOnUse" x1="393.2569" y1="258.1194" x2="455.9236" y2="368.1194">
		<stop  offset="0" style="stop-color:#E9E9EA"/>
		<stop  offset="0.9987" style="stop-color:#FFFFFF;stop-opacity:0"/>
	</linearGradient>
	<path class="st4" d="M436.7,308c0,0,0-0.1,0-0.2c0.2-2,0.6-4.2,0.6-5.9c0-1.8-0.4-3-1.9-3.4c-0.2,0-0.5-0.1-0.7-0.1
		c-2.5,0-6.3,2.2-8.5,2.2c-0.7,0-1.3-0.3-1.4-1c-0.3-1.2-1.4-1.9-2.6-2.6c-1.2-0.7-2.6-1.4-3.5-2.8c-0.6-0.9-1.3-1.2-2-1.7
		c-0.3-0.3-0.6-0.6-0.8-1.1c-0.7,0.9-1.4,1.7-2.4,2.1c-3.3,1.7-8.9,3.1-10.6,5.5c-0.8,1.2-2.2,3.1-3.5,4.8
		c6.1,1.7,13.6-0.1,17.3,3.1c3.9,3.4,9.6,3.5,9.6,3.5l10.9,1.3c0,0,0,0.1,0.1,0.2l0.8-2C437.2,309.6,436.7,308.9,436.7,308z"/>
	<linearGradient id="SVGID_5_" gradientUnits="userSpaceOnUse" x1="389.7692" y1="260.1063" x2="452.4359" y2="370.1063">
		<stop  offset="0" style="stop-color:#E9E9EA"/>
		<stop  offset="0.9987" style="stop-color:#FFFFFF;stop-opacity:0"/>
	</linearGradient>
	<path class="st5" d="M413.3,293.2c1-0.5,1.7-1.3,2.4-2.2c-0.1-0.5-0.2-1.1-0.2-1.9c0-1.2,0.2-2.8,0.6-5.1c0.3-2,0.7-3.1,1.1-3.9
		c0.4-0.8,0.8-1.1,1.3-1.1c0.8,0,1.6,0.9,2.4,0.8c0.5,0,1.1-0.2,1.8-1.2c1.6-2.1,3.8-5.2,5.6-7.7c-1.9-0.3-4.1-1.1-5.5-1.6l-6.9,1.3
		v-0.2c0,0-0.2-10.9-0.2-15.4c0-2.2-0.4-7.2-0.7-11.5c-0.1-1.1-0.2-2.1-0.3-3.1l-24.7-0.2l-0.4,7.6l-5.7,1.4
		c1.1,0.9,4.6,3.8,5.5,4.8c1,1,4.4,1.3,6.9,1.3c0.5,0,0.9,0.1,1.2,0.4c0.3,0.3,0.3,0.7,0.3,1.1c0,1.1-0.4,2.7-0.4,4.5
		c0,0.5,0,0.9,0.1,1.4c0.1,0.8,0.2,1.3,0.2,1.8c0,1-0.3,1.5-0.9,1.6c-0.6,0.2-1.3,0.2-2.4,0.6c-1,0.4-2.5,0.5-4.4,0.5
		c-3.6,0-8.2-0.5-10.4-0.5c-0.6,0-1.9,1.4-3.3,3.7c-1.4,2.3-2.9,5.3-4.4,8.3c-1.3,2.6-2.4,5.3-3.4,7.4c10.8,8.1,23.5,14.9,29.5,17.2
		c0.3,0.1,0.6,0.2,0.9,0.3c1.3-1.7,2.8-3.7,3.6-4.9C404.5,296.2,410.1,294.9,413.3,293.2z"/>
	<linearGradient id="SVGID_6_" gradientUnits="userSpaceOnUse" x1="433.0853" y1="235.4292" x2="495.752" y2="345.4292">
		<stop  offset="0" style="stop-color:#E9E9EA"/>
		<stop  offset="0.9987" style="stop-color:#FFFFFF;stop-opacity:0"/>
	</linearGradient>
	<path class="st6" d="M499.6,286.6c-3.6,1.1-8.5,2.4-11.8,2.4c-0.9,0-1.8-0.1-2.4-0.3c-2.8-1-4-1.9-5-1.9c-0.7,0-1.4,0.4-2.8,1.4
		c-1.4,1.2-3.8,4.2-6.2,6.9c-2.4,2.7-4.8,5.2-6.5,5.2c-0.3,0-0.7-0.1-0.9-0.3c-1-0.9-1.8-2-2.4-2.8c-0.6-0.9-1.2-1.5-1.5-1.4
		c-0.1,0-0.3,0.1-0.5,0.8c-0.7,2.7-2.4,3.6-5.8,3.7c-0.6,0-1,0.1-1.2,0.2c-0.2,0.1-0.2,0.1-0.2,0.1c0,0.1,0.3,0.5,0.8,0.9
		c0.4,0.5,1,1,1.3,1.7c0.2,0.4,0.3,0.8,0.3,1.2c0,1.9-1.6,4-4,5.2c-1.4,0.7-4.7,1.3-7.7,1.3c-1.6,0-3.2-0.2-4.4-0.6
		c-0.1,0-0.2-0.1-0.3-0.1l-0.9,2.2c1.3,2.1,5.7,9.1,8,9.8c2.7,0.8,5.3,2,5.8,3.9c0.5,1.8,6.7,10.3,9,12.7c3.5,0,6.7,0.1,8.1,0.3
		c3.4,0.4,4.5,2.7,7.7,4.5c0.5,0.2,0.8,0.4,1.1,0.4c0.6,0,0.9-0.7,1.5-1.5c0.6-0.8,1.4-1.7,3.2-1.7c0.4,0,0.7,0,1.2,0.1
		c2.8,0.5,3.7,1.6,4.4,2.6c0.7,1,1.1,1.9,2.8,2.2c0.5,0.1,1,0.2,1.6,0.2c1.9,0,4.1-0.5,5.9-0.9c0,0,0.1,0,0.1-0.1
		c0.1-3.6,0.2-11.8,0-15.1c-0.3-4.4,0.4-13.2,1.9-16.7c1.5-3.5-3.1-2.9-3.3-5.2c-0.1-2.3,7.1-12.8,7.9-15.5
		C505,290.3,501,287.5,499.6,286.6z"/>
</g>
<radialGradient id="SVGID_7_" cx="30.516" cy="24.0263" r="11.6704" gradientUnits="userSpaceOnUse">
	<stop  offset="0" style="stop-color:#F6BA07"/>
	<stop  offset="0.1991" style="stop-color:#F5B610"/>
	<stop  offset="0.4674" style="stop-color:#EFA91D"/>
	<stop  offset="0.7737" style="stop-color:#E69228"/>
	<stop  offset="1" style="stop-color:#DE7D2D"/>
</radialGradient>
<circle class="st7" cx="30.5" cy="24" r="11.7"/>
<radialGradient id="SVGID_8_" cx="236.6808" cy="88.3058" r="11.6704" gradientUnits="userSpaceOnUse">
	<stop  offset="0" style="stop-color:#F6BA07"/>
	<stop  offset="0.1991" style="stop-color:#F5B610"/>
	<stop  offset="0.4674" style="stop-color:#EFA91D"/>
	<stop  offset="0.7737" style="stop-color:#E69228"/>
	<stop  offset="1" style="stop-color:#DE7D2D"/>
</radialGradient>
<circle class="st8" cx="236.7" cy="88.3" r="11.7"/>
<radialGradient id="SVGID_9_" cx="272.7405" cy="211.3781" r="11.6704" gradientUnits="userSpaceOnUse">
	<stop  offset="0" style="stop-color:#F6BA07"/>
	<stop  offset="0.1991" style="stop-color:#F5B610"/>
	<stop  offset="0.4674" style="stop-color:#EFA91D"/>
	<stop  offset="0.7737" style="stop-color:#E69228"/>
	<stop  offset="1" style="stop-color:#DE7D2D"/>
</radialGradient>
<circle class="st9" cx="272.7" cy="211.4" r="11.7"/>
<radialGradient id="SVGID_10_" cx="248.3512" cy="156.7875" r="11.6704" gradientUnits="userSpaceOnUse">
	<stop  offset="0" style="stop-color:#F6BA07"/>
	<stop  offset="0.1991" style="stop-color:#F5B610"/>
	<stop  offset="0.4674" style="stop-color:#EFA91D"/>
	<stop  offset="0.7737" style="stop-color:#E69228"/>
	<stop  offset="1" style="stop-color:#DE7D2D"/>
</radialGradient>
<circle class="st10" cx="248.4" cy="156.8" r="11.7"/>
<radialGradient id="SVGID_11_" cx="247.1752" cy="196.1798" r="11.6704" gradientUnits="userSpaceOnUse">
	<stop  offset="0" style="stop-color:#F6BA07"/>
	<stop  offset="0.1991" style="stop-color:#F5B610"/>
	<stop  offset="0.4674" style="stop-color:#EFA91D"/>
	<stop  offset="0.7737" style="stop-color:#E69228"/>
	<stop  offset="1" style="stop-color:#DE7D2D"/>
</radialGradient>
<circle class="st11" cx="247.2" cy="196.2" r="11.7"/>
<radialGradient id="SVGID_12_" cx="197.4862" cy="200.9907" r="11.6704" gradientUnits="userSpaceOnUse">
	<stop  offset="0" style="stop-color:#F6BA07"/>
	<stop  offset="0.1991" style="stop-color:#F5B610"/>
	<stop  offset="0.4674" style="stop-color:#EFA91D"/>
	<stop  offset="0.7737" style="stop-color:#E69228"/>
	<stop  offset="1" style="stop-color:#DE7D2D"/>
</radialGradient>
<circle class="st12" cx="197.5" cy="201" r="11.7"/>
</svg>
